# xmcd CD database file
#
# Track frame offsets:
#	150
#	39252
#	67052
#	86485
#	126710
#	163735
#	195155
#	235352
#	259290
#
# Disc length: 3790 seconds
#
# Revision: 0
# Processed by: cddbd v1.5.2PL0 Copyright (c) Steve Scherf et al.
# Submitted via: CDex 1.70beta2
#
DISCID=7d0ecc09
DTITLE=Jeff Gauthier - The Present
DYEAR=1997
DGENRE=Jazz
TTITLE0=Les Cigales De Provence
TTITLE1=The Present
TTITLE2=The Gigue Is Up
TTITLE3=If I Could Find The Words
TTITLE4=That Little Tango
TTITLE5=Fond Remembrance
TTITLE6=Etcetera
TTITLE7=March To Oblivion
TTITLE8=Time Remembered
EXTD=YEAR: 1997
EXTT0=
EXTT1=
EXTT2=
EXTT3=
EXTT4=
EXTT5=
EXTT6=
EXTT7=
EXTT8=
PLAYORDER=
